{"title":"Gotye - Easy Way Out - Single(UK Version) [Single] [2011]- Sebas","uid":7559985,"size":12301022,"categoryP":"audio","categoryS":"other","magnet":"?xt=urn:btih:dee16991b4034b0df224b619a459b180108bcd7d&amp;dn=Gotye+-+Easy+Way+Out+-+Single%28UK+Version%29+%5BSingle%5D+%5B2011%5D-+Sebas&amp;tr=udp%3A%2F%2Ftracker.openbittorrent.com%3A80&amp;tr=udp%3A%2F%2Fopen.demonii.com%3A1337&amp;tr=udp%3A%2F%2Ftracker.coppersurfer.tk%3A6969&amp;tr=udp%3A%2F%2Fexodus.desync.com%3A6969","seeders":0,"leechers":0,"uploader":"V3nom","files":-1,"time":1345717996,"description":"[img]http://img543.imageshack.us/img543/6016/o9txf.jpg[/img]\n\n[b][color=black]Gotye - Easy Way Out - Single(UK Version) [Single] [2011]- Sebastian[Ub3r]\n\nFormat                           : MPEG-4\nFormat profile                   : Apple audio with iTunes info\nCodec ID                         : M4A \nFile size                        : 3.60 MiB\nDuration                         : 1mn 57s\nOverall bit rate                 : 258 Kbps\nAlbum                            : Easy Way Out - Single\nAlbum/Performer                  : Gotye\nPart/Position                    : 1\nPart/Total                       : 1\nTrack name                       : Easy Way Out\nTrack name/Position              : 1\nTrack name/Total                 : 2\nPerformer                        : Gotye\nComposer                         : Wally De Backer\nGenre                            : Alternative\nRecorded date                    : 2011\n\nAudio\nID                               : 1\nFormat                           : AAC\nFormat/Info                      : Advanced Audio Codec\nFormat profile                   : LC\nCodec ID                         : 40\nDuration                         : 1mn 57s\nBit rate mode                    : Variable\nBit rate                         : 256 Kbps\nMaximum bit rate                 : 272 Kbps\nChannel(s)                       : 2 channels\nChannel positions                : Front: L R\nSampling rate                    : 44.1 KHz\nCompression mode                 : Lossy\nStream size                      : 3.57 MiB (99%)\nLanguage                         : English[/color][/b]\n[color=green]**********************************************************************[/color]\n[b][color=black]Gotye - Easy Way Out - Single(UK Version) [Single] [2011]- Sebastian[Ub3r]\n\nFormat                           : MPEG-4\nFormat profile                   : Apple audio with iTunes info\nCodec ID                         : M4A \nFile size                        : 8.09 MiB\nDuration                         : 4mn 23s\nOverall bit rate                 : 258 Kbps\nAlbum                            : Easy Way Out - Single\nAlbum/Performer                  : Gotye\nPart/Position                    : 1\nPart/Total                       : 1\nTrack name                       : Dig Your Own Hole\nTrack name/Position              : 2\nTrack name/Total                 : 2\nPerformer                        : Gotye\nComposer                         : Wally De Backer\nGenre                            : Alternative\nRecorded date                    : 2011\n\nAudio\nID                               : 1\nFormat                           : AAC\nFormat/Info                      : Advanced Audio Codec\nFormat profile                   : LC\nCodec ID                         : 40\nDuration                         : 4mn 23s\nBit rate mode                    : Variable\nBit rate                         : 256 Kbps\nMaximum bit rate                 : 274 Kbps\nChannel(s)                       : 2 channels\nChannel positions                : Front: L R\nSampling rate                    : 44.1 KHz\nCompression mode                 : Lossy\nStream size                      : 8.03 MiB (99%)\nLanguage                         : English[/color][/b]\n[color=green]**********************************************************************[/color]\n[img]http://kastatic.com/i2/users/133df62bbf28e62494bb17fe11078f1a.gif[/img][img]http://kastatic.com/i2/users/133df62bbf28e62494bb17fe11078f1a.gif[/img]","torrent":{"xt":"urn:btih:dee16991b4034b0df224b619a459b180108bcd7d","amp;dn":"Gotye+-+Easy+Way+Out+-+Single%28UK+Version%29+%5BSingle%5D+%5B2011%5D-+Sebas","amp;tr":["udp%3A%2F%2Ftracker.openbittorrent.com%3A80","udp%3A%2F%2Fopen.demonii.com%3A1337","udp%3A%2F%2Ftracker.coppersurfer.tk%3A6969","udp%3A%2F%2Fexodus.desync.com%3A6969"],"infoHash":"dee16991b4034b0df224b619a459b180108bcd7d","infoHashBuffer":{"type":"Buffer","data":[222,225,105,145,180,3,75,13,242,36,182,25,164,89,177,128,16,139,205,125]},"announce":[],"urlList":[]}}